<?xml version="1.0" encoding="UTF-8" standalone="no"?><!-- Generator: Gravit.io --><svg xmlns="http://www.w3.org/2000/svg" xmlns:xlink="http://www.w3.org/1999/xlink" style="isolation:isolate" viewBox="2 0 1080 540" width="1080pt" height="540pt"><defs><clipPath id="_clipPath_cVveeaDpuDv993JBVambujwCVxfAFmxa"><rect x="2" y="0" width="1080" height="540"/></clipPath></defs><g clip-path="url(#_clipPath_cVveeaDpuDv993JBVambujwCVxfAFmxa)"><clipPath id="_clipPath_fuvcJY7SR2I5yjccfi5i8PUJJss9AOrW"><path d=" M 2 0 L 1082 0 L 1082 540 L 2 540 L 2 0 Z " fill="rgb(255,255,255)"/></clipPath><g clip-path="url(#_clipPath_fuvcJY7SR2I5yjccfi5i8PUJJss9AOrW)"><g><g><g><g><path d=" M 539.712 175.271 C 539.712 166.576 539.254 157.881 539.254 149.644 C 539.712 133.169 548.864 135 559.39 135 L 559.39 129.508 L 517.288 129.508 C 516.373 133.169 513.169 140.034 511.339 143.695 C 498.525 170.237 485.254 203.186 473.356 229.271 L 466.949 241.627 C 466.949 242.085 466.492 242.085 466.492 242.542 L 466.034 243 L 414.78 129.508 L 372.678 129.508 C 372.678 139.119 377.254 133.169 385.492 136.831 C 390.525 138.661 392.814 143.237 392.814 149.644 L 392.814 258.559 C 392.814 271.373 382.746 272.288 372.678 272.288 C 372.678 275.492 372.22 277.78 375.881 277.78 L 423.932 277.78 L 423.932 272.288 C 398.763 272.288 403.797 264.051 403.797 223.322 Q 403.797 189.915 403.797 156.508 L 431.712 218.288 C 436.746 231.559 450.932 258.559 455.966 271.831 C 457.797 275.949 457.797 277.322 462.83 277.78 L 517.288 157.424 L 517.288 245.288 C 520.492 245.288 534.678 238.424 538.339 236.593 C 543.831 233.847 554.356 229.271 560.763 227.441 C 560.305 212.339 551.153 189 568.542 162 C 582.729 139.576 611.102 123.559 639.475 136.373 C 665.559 147.814 669.22 175.729 675.17 179.847 C 676.542 173.898 675.17 141.864 675.17 133.169 C 669.678 133.627 669.678 135.458 668.763 140.949 C 654.576 137.746 619.797 115.322 582.729 131.797 C 563.508 140.492 552.525 152.847 542.458 170.695 L 539.712 175.271 Z " fill="rgb(5,5,5)"/><path d=" M 456.881 289.22 C 490.288 264.508 528.271 243.915 567.627 229.729 C 579.068 225.61 589.593 222.407 601.949 218.746 C 613.847 215.085 626.203 213.254 639.475 210.508 C 661.898 206.39 713.153 201.814 734.203 203.186 L 768.525 205.475 C 766.695 208.22 766.695 208.22 761.203 207.305 C 748.847 205.932 716.356 207.305 703.542 209.136 C 688.898 210.966 680.203 209.593 676.542 216.458 C 672.881 222.864 674.254 253.983 674.254 264.051 C 670.593 265.424 665.102 269.085 661.898 270.915 C 628.949 288.305 565.339 285.559 545.203 247.576 C 529.644 254.898 511.797 261.305 496.695 270.458 C 488.915 275.034 481.593 278.237 473.814 282.814 C 468.322 286.017 455.966 295.169 450.475 295.627 C 451.847 291.966 451.39 293.339 456.881 289.22 L 456.881 289.22 Z  M 572.203 253.983 C 587.305 273.203 601.034 274.119 623.915 274.119 C 633.068 274.119 649.542 267.712 649.542 262.22 C 649.542 247.576 650.458 231.102 647.254 217.373 C 641.763 217.831 630.78 220.576 625.288 221.949 C 618.424 223.78 612.017 225.153 604.695 226.983 C 593.254 229.729 574.034 237.508 564.881 239.797 C 567.169 244.831 567.627 247.576 572.203 253.983 L 572.203 253.983 Z " fill-rule="evenodd" fill="rgb(0,173,239)"/></g></g></g></g></g><g clip-path="url(#_clipPath_ekm6mLo16RlUvu3jJzsofzrfl0wSpsVF)"><text transform="matrix(4.576,0,0,4.576,448.186,378.749)" style="font-family:'Bahnschrift';font-weight:400;font-size:6px;font-style:normal;fill:#000000;stroke:none;">CRC-PA 494/0</text></g><defs><clipPath id="_clipPath_ekm6mLo16RlUvu3jJzsofzrfl0wSpsVF"><rect x="0" y="0" width="41" height="7.201" transform="matrix(4.576,0,0,4.576,448.186,351.452)"/></clipPath></defs><g clip-path="url(#_clipPath_6HRd4owJPmBGkH0eGVAXb4izljEucVmW)"><text transform="matrix(1,0,0,1,258.5,344.724)" style="font-family:'Times New Roman';font-weight:700;font-size:66px;font-style:normal;fill:#000000;stroke:none;">CONTABILIDADE</text></g><defs><clipPath id="_clipPath_6HRd4owJPmBGkH0eGVAXb4izljEucVmW"><rect x="0" y="0" width="567" height="73.09" transform="matrix(1,0,0,1,258.5,285.91)"/></clipPath></defs></g></svg>